<svg width="12" height="13" viewBox="0 0 12 13" fill="none" xmlns="http://www.w3.org/2000/svg">
<path d="M0.46967 10.9697C0.176777 11.2626 0.176777 11.7374 0.46967 12.0303C0.762563 12.3232 1.23744 12.3232 1.53033 12.0303L1 11.5L0.46967 10.9697ZM6.53033 7.03033C6.82322 6.73744 6.82322 6.26256 6.53033 5.96967C6.23744 5.67678 5.76256 5.67678 5.46967 5.96967L6 6.5L6.53033 7.03033ZM5.46967 5.96967C5.17678 6.26256 5.17678 6.73744 5.46967 7.03033C5.76256 7.32322 6.23744 7.32322 6.53033 7.03033L6 6.5L5.46967 5.96967ZM11.5303 2.03033C11.8232 1.73744 11.8232 1.26256 11.5303 0.96967C11.2374 0.676777 10.7626 0.676777 10.4697 0.96967L11 1.5L11.5303 2.03033ZM6.53033 5.96967C6.23744 5.67678 5.76256 5.67678 5.46967 5.96967C5.17678 6.26256 5.17678 6.73744 5.46967 7.03033L6 6.5L6.53033 5.96967ZM10.4697 12.0303C10.7626 12.3232 11.2374 12.3232 11.5303 12.0303C11.8232 11.7374 11.8232 11.2626 11.5303 10.9697L11 11.5L10.4697 12.0303ZM5.46967 7.03033C5.76256 7.32322 6.23744 7.32322 6.53033 7.03033C6.82322 6.73744 6.82322 6.26256 6.53033 5.96967L6 6.5L5.46967 7.03033ZM1.53033 0.96967C1.23744 0.676777 0.762563 0.676777 0.46967 0.96967C0.176777 1.26256 0.176777 1.73744 0.46967 2.03033L1 1.5L1.53033 0.96967ZM1 11.5L1.53033 12.0303L6.53033 7.03033L6 6.5L5.46967 5.96967L0.46967 10.9697L1 11.5ZM6 6.5L6.53033 7.03033L11.5303 2.03033L11 1.5L10.4697 0.96967L5.46967 5.96967L6 6.5ZM6 6.5L5.46967 7.03033L10.4697 12.0303L11 11.5L11.5303 10.9697L6.53033 5.96967L6 6.5ZM6 6.5L6.53033 5.96967L1.53033 0.96967L1 1.5L0.46967 2.03033L5.46967 7.03033L6 6.5Z" fill="black"/>
</svg>
