<svg width="53" height="52" viewBox="0 0 53 52" fill="none" xmlns="http://www.w3.org/2000/svg">
<path d="M27.0056 0H26.8872C12.5647 0 0.954102 11.6141 0.954102 25.9408V26.0592C0.954102 40.3859 12.5647 51.9999 26.8872 51.9999H27.0056C41.3281 51.9999 52.9387 40.3859 52.9387 26.0592V25.9408C52.9387 11.6141 41.3281 0 27.0056 0Z" fill="#00B0F2"/>
<path d="M10.8002 25.1142C10.8731 25.0778 10.946 25.0432 11.017 25.0104C12.2518 24.4383 13.503 23.9027 14.7524 23.3671C14.8198 23.3671 14.9327 23.2888 14.9965 23.2632C15.093 23.2213 15.1895 23.1813 15.286 23.1394L15.8415 22.9007C16.2131 22.7422 16.5828 22.5837 16.9543 22.4252C17.6956 22.1082 18.4368 21.7912 19.1781 21.4724C20.6606 20.8384 22.145 20.2026 23.6275 19.5686C25.11 18.9346 26.5943 18.2988 28.0769 17.6648C29.5594 17.0308 31.0437 16.395 32.5262 15.761C34.0087 15.127 35.4931 14.4912 36.9756 13.8572C37.3053 13.7151 37.6622 13.5038 38.0156 13.4419C38.3124 13.389 38.602 13.287 38.9007 13.2305C39.4671 13.123 40.0918 13.0793 40.6345 13.3143C40.8221 13.3963 40.9951 13.5111 41.139 13.655C41.8275 14.3364 41.7309 15.455 41.5852 16.4132C40.5708 23.092 39.5563 29.7726 38.5401 36.4513C38.4016 37.3677 38.2122 38.3733 37.4892 38.9527C36.8772 39.4427 36.0067 39.4974 35.2508 39.2897C34.495 39.0802 33.8284 38.6411 33.1746 38.2094C30.4627 36.4131 27.749 34.6168 25.0372 32.8205C24.3924 32.3942 23.6749 31.8367 23.6821 31.0624C23.6858 30.596 23.9644 30.1807 24.2485 29.8108C26.6053 26.7356 30.0056 24.6223 32.5353 21.6892C32.8923 21.2757 33.1728 20.5287 32.6829 20.2901C32.3915 20.148 32.0563 20.3411 31.7904 20.5251C28.4466 22.8479 25.1045 25.1725 21.7607 27.4953C20.6697 28.2532 19.526 29.0329 18.211 29.2187C17.0345 29.3864 15.8507 29.0584 14.7124 28.7232C13.758 28.4427 12.8055 28.1548 11.8566 27.8579C11.3521 27.7012 10.8312 27.5317 10.4414 27.1765C10.0517 26.8212 9.8277 26.2237 10.0626 25.75C10.2102 25.4531 10.4961 25.2654 10.7966 25.1124L10.8002 25.1142Z" fill="#FEFFFC"/>
</svg>
