<svg width="52" height="52" viewBox="0 0 52 52" fill="none" xmlns="http://www.w3.org/2000/svg">
<path d="M26.0515 0H25.9331C11.6107 0 0 11.6141 0 25.9408V26.0592C0 40.3859 11.6107 51.9999 25.9331 51.9999H26.0515C40.374 51.9999 51.9846 40.3859 51.9846 26.0592V25.9408C51.9846 11.6141 40.374 0 26.0515 0Z" fill="#00E510"/>
<path d="M31.058 33.6047C24.4049 33.6047 18.9921 28.1885 18.9902 21.5334C18.9921 19.8464 20.3653 18.4746 22.0482 18.4746C22.2212 18.4746 22.3924 18.4892 22.5563 18.5183C22.9169 18.5785 23.2593 18.7005 23.5744 18.8845C23.6199 18.9118 23.6509 18.9556 23.6582 19.0066L24.3612 23.439C24.3703 23.4919 24.3539 23.5429 24.3193 23.5811C23.9314 24.0111 23.436 24.3208 22.8841 24.4757L22.6182 24.5503L22.7184 24.8072C23.6254 27.1173 25.4722 28.9628 27.7833 29.8737L28.0402 29.9757L28.1148 29.7097C28.2696 29.1577 28.5792 28.6622 29.0091 28.2741C29.04 28.245 29.0819 28.2304 29.1238 28.2304C29.1329 28.2304 29.142 28.2304 29.153 28.2322L33.5841 28.9354C33.6369 28.9446 33.6806 28.9737 33.708 29.0192C33.8901 29.3344 34.0121 29.6787 34.074 30.0395C34.1032 30.1998 34.1159 30.3692 34.1159 30.5459C34.1159 32.2311 32.7445 33.6029 31.058 33.6047Z" fill="#FDFDFD"/>
<path d="M42.8563 24.5398C42.4975 20.4844 40.6399 16.7224 37.6256 13.9478C34.5932 11.1567 30.6593 9.61914 26.545 9.61914C17.5151 9.61914 10.1681 16.9683 10.1681 26.0009C10.1681 29.0323 11.0041 31.9855 12.5868 34.5579L9.05713 42.3735L20.3581 41.1692C22.3233 41.9745 24.4032 42.3826 26.5432 42.3826C27.106 42.3826 27.6833 42.3534 28.2625 42.2933C28.7724 42.2386 29.2879 42.1585 29.7942 42.0565C37.3561 40.528 42.8764 33.8146 42.9201 26.0883V26.0009C42.9201 25.509 42.8982 25.0171 42.8545 24.5398H42.8563ZM20.7934 37.7388L14.541 38.4056L16.4078 34.2682L16.0344 33.7672C16.0071 33.7308 15.9798 33.6944 15.9488 33.6525C14.3279 31.4135 13.4719 28.7682 13.4719 26.0027C13.4719 18.792 19.3364 12.9257 26.545 12.9257C33.2983 12.9257 39.0226 18.1962 39.5744 24.9242C39.6035 25.2849 39.6199 25.6474 39.6199 26.0045C39.6199 26.1065 39.6181 26.2067 39.6163 26.3142C39.4779 32.3462 35.2653 37.4691 29.3716 38.7736C28.9218 38.8738 28.461 38.9503 28.002 38.9995C27.5248 39.0541 27.0349 39.0814 26.5486 39.0814C24.8166 39.0814 23.1338 38.7462 21.5438 38.0831C21.3671 38.012 21.1941 37.9355 21.032 37.8572L20.7952 37.7424L20.7934 37.7388Z" fill="#FDFDFD"/>
</svg>
